# xmcd
#
# Track frame offsets:
#	150
#	17245
#	29202
#	36585
#	46667
#	75800
#	85802
#	97680
#	112862
#	125102
#	136320
#	149770
#	162107
#	174062
#	188782
#	200500
#	213287
#	223875
#
# Disc length: 3172
#
# Revision: 3
# Processed by: cddbd v1.5.1PL0 Copyright (c) Steve Scherf et al.
# Submitted via: EasyCD2 v3.00 - Copyright (c) 1997 Greg Leichner
# Normalized: r1:TSWAP
#
DISCID=f60c6212
DTITLE=Soul Music Collection - 1. - I pionieri del Soul
DYEAR=1900
DGENRE=
TTITLE0=Mahalia Jackson - Nobody Knows The Trouble I've Seen
TTITLE1=Arthur Lee and The Crowns - Gloria
TTITLE2=Maurice Williams and The Zodiacs - Stay
TTITLE3=Sam Cooke - I'll Come Running Back To You
TTITLE4=Ray Charles - What'd I Say (parts 1&2)
TTITLE5=Larry Williams - Dizzy, Miss Lizzy
TTITLE6=The Platters - The Great Pretender
TTITLE7=Lionel Hampton and His Orchestra - Hey! Ba-Ba-Re-Bop
TTITLE8=Bobby Bland - I Pity The Fool
TTITLE9=Lloyd Price - Lawdy Miss Clawdy
TTITLE10=Bo Diddley - I'm A Man
TTITLE11=Albert King - You Threw Your Love On Me Too Strong
TTITLE12=Wynona Carr - Should I Ever Love Again?
TTITLE13=Cab Calloway - Minnie The Moocher
TTITLE14=Sam Cooke (with The Soul Stirrers) - Pilgrim Of Sorrow
TTITLE15=Percy Mayfield - Cry Baby
TTITLE16=Fats Domino - Blueberry Hill
TTITLE17=Muddy Waters - Rolling Stone
EXTD=
EXTT0=
EXTT1=
EXTT2=
EXTT3=
EXTT4=
EXTT5=
EXTT6=
EXTT7=
EXTT8=
EXTT9=
EXTT10=
EXTT11=
EXTT12=
EXTT13=
EXTT14=
EXTT15=
EXTT16=
EXTT17=
PLAYORDER=
